<svg width="50" height="51" viewBox="0 0 50 51" fill="none" xmlns="http://www.w3.org/2000/svg">
<g clip-path="url(#clip0_175_380)">
<path d="M25 50.6367C38.8071 50.6367 50 39.4438 50 25.6367C50 11.8296 38.8071 0.636719 25 0.636719C11.1929 0.636719 0 11.8296 0 25.6367C0 39.4438 11.1929 50.6367 25 50.6367Z" fill="#6DA544"/>
<path d="M24.9998 10.4189L45.652 25.6363L24.9998 40.8537L4.34766 25.6363L24.9998 10.4189Z" fill="#FFDA44"/>
<path d="M25.0003 34.3326C29.8027 34.3326 33.6959 30.4395 33.6959 25.637C33.6959 20.8346 29.8027 16.9414 25.0003 16.9414C20.1978 16.9414 16.3047 20.8346 16.3047 25.637C16.3047 30.4395 20.1978 34.3326 25.0003 34.3326Z" fill="#F0F0F0"/>
<path d="M20.6517 25.0938C19.1396 25.0938 17.6803 25.3237 16.3066 25.7505C16.3675 30.5005 20.2351 34.3329 24.9995 34.3329C27.9456 34.3329 30.5476 32.8664 32.1205 30.6251C29.4294 27.2562 25.2887 25.0938 20.6517 25.0938Z" fill="#0052B4"/>
<path d="M33.534 27.303C33.6387 26.7636 33.6952 26.207 33.6952 25.637C33.6952 20.8345 29.8021 16.9414 24.9996 16.9414C21.4162 16.9414 18.34 19.1095 17.0088 22.205C18.1855 21.9611 19.4039 21.8327 20.6519 21.8327C25.7023 21.8326 30.2713 23.932 33.534 27.303Z" fill="#0052B4"/>
</g>
<defs>
<clipPath id="clip0_175_380">
<rect width="50" height="50" fill="white" transform="translate(0 0.636719)"/>
</clipPath>
</defs>
</svg>
